<?xml version="1.0" encoding="UTF-8" standalone="no"?>
<!DOCTYPE svg PUBLIC "-//W3C//DTD SVG 1.1//EN" "http://www.w3.org/Graphics/SVG/1.1/DTD/svg11.dtd">
<svg width="100%" height="100%" viewBox="0 0 2726 1001" version="1.1" xmlns="http://www.w3.org/2000/svg"
     xml:space="preserve"
     style="fill-rule:evenodd;clip-rule:evenodd;stroke-linejoin:round;stroke-miterlimit:2;">
    <g transform="matrix(4.16667,0,0,4.16667,384.563,236.449)">
        <path d="M0,126.642C-34.915,126.642 -63.32,98.237 -63.32,63.321L-52.006,63.321C-52.006,91.996 -28.676,115.328 0,115.328C28.676,115.328 52.006,91.996 52.006,63.321C52.006,34.644 28.676,11.315 0,11.315L0,0C34.915,0 63.32,28.406 63.32,63.321C63.32,98.237 34.915,126.642 0,126.642"
              style="fill:rgb(115,167,46);fill-rule:nonzero;"/>
    </g>
    <g transform="matrix(4.16667,0,0,4.16667,384.435,0)">
        <path d="M0,240.131L0,228.817C59.965,228.817 108.75,180.03 108.75,120.065C108.75,60.099 59.965,11.314 0,11.314L0,0C66.205,0 120.065,53.86 120.065,120.065C120.065,186.269 66.205,240.131 0,240.131"
              style="fill:rgb(115,167,46);fill-rule:nonzero;"/>
    </g>
    <g transform="matrix(4.16667,0,0,4.16667,116.433,704.787)">
        <path d="M0,-98.2C-10.428,-84.572 -16.629,-67.547 -16.629,-49.1C-16.629,-4.462 19.687,31.854 64.326,31.854C108.964,31.854 145.28,-4.462 145.28,-49.1C145.28,-93.739 108.964,-130.054 64.326,-130.054C38.134,-130.054 14.807,-117.551 0,-98.2M-6.566,-108.098C10.374,-128.417 35.866,-141.369 64.326,-141.369C115.203,-141.369 156.594,-99.977 156.594,-49.1C156.594,1.777 115.203,43.169 64.326,43.169C13.449,43.169 -27.944,1.777 -27.944,-49.1C-27.944,-71.517 -19.908,-92.093 -6.566,-108.098"
              style="fill:rgb(115,167,46);fill-rule:nonzero;"/>
    </g>
    <g transform="matrix(4.16667,0,0,4.16667,1140.17,511.292)">
        <path d="M0,-5.143L5.632,-5.143C8.623,-5.143 10.868,-5.823 12.363,-7.183C13.862,-8.543 14.608,-10.692 14.608,-13.631C14.608,-16.351 13.805,-18.336 12.203,-19.589C10.597,-20.841 8.132,-21.465 4.813,-21.465L0,-21.465L0,-5.143ZM5.223,4.08L0,4.08L0,25.709L-13.387,25.709L-13.387,-30.852L5.141,-30.852C12.867,-30.852 18.675,-29.437 22.567,-26.608C26.455,-23.778 28.404,-19.452 28.404,-13.631C28.404,-9.985 27.532,-6.952 25.791,-4.531C24.05,-2.108 21.301,-0.054 17.548,1.632L31.911,25.709L16.812,25.709L5.223,4.08Z"
              style="fill:rgb(69,75,81);fill-rule:nonzero;"/>
    </g>
    <g transform="matrix(4.16667,0,0,4.16667,1399.64,546.995)">
        <path d="M0,-9.059C-0.11,-15.697 -2.449,-19.017 -7.021,-19.017C-9.253,-19.017 -10.979,-18.2 -12.203,-16.567C-13.428,-14.935 -14.177,-12.242 -14.448,-8.488L0,-8.488L0,-9.059ZM12.404,-0.735L-14.448,-0.735C-14.013,2.911 -12.978,5.469 -11.347,6.938C-9.713,8.407 -7.455,9.141 -4.571,9.141C-2.831,9.141 -1.144,8.829 0.487,8.204C2.122,7.579 3.888,6.612 5.793,5.305L11.098,12.488C6.038,16.515 0.406,18.527 -5.796,18.527C-12.814,18.527 -18.201,16.46 -21.957,12.325C-25.709,8.189 -27.589,2.64 -27.589,-4.326C-27.589,-8.733 -26.799,-12.692 -25.221,-16.201C-23.644,-19.711 -21.33,-22.485 -18.283,-24.526C-15.238,-26.566 -11.592,-27.586 -7.346,-27.586C-1.09,-27.586 3.806,-25.628 7.345,-21.71C10.88,-17.792 12.649,-12.351 12.649,-5.386C12.649,-3.592 12.567,-2.039 12.404,-0.735"
              style="fill:rgb(69,75,81);fill-rule:nonzero;"/>
    </g>
    <g transform="matrix(4.16667,0,0,4.16667,1539.57,627.076)">
        <path d="M0,-36.399C-1.168,-35.121 -1.754,-33.366 -1.754,-31.135C-1.754,-28.794 -1.168,-26.985 0,-25.707C1.171,-24.43 2.761,-23.79 4.775,-23.79C6.897,-23.79 8.516,-24.415 9.63,-25.667C10.745,-26.918 11.305,-28.794 11.305,-31.299C11.305,-35.977 9.127,-38.318 4.775,-38.318C2.761,-38.318 1.171,-37.677 0,-36.399M27.875,-42.888C25.044,-41.745 20.882,-41.173 15.386,-41.173C18.216,-39.977 20.284,-38.507 21.588,-36.768C22.894,-35.025 23.549,-32.768 23.549,-29.992C23.549,-27.217 22.812,-24.729 21.345,-22.524C19.875,-20.32 17.766,-18.593 15.017,-17.343C12.271,-16.09 9.048,-15.465 5.346,-15.465C3.604,-15.465 1.945,-15.628 0.368,-15.954C-0.066,-15.737 -0.406,-15.396 -0.652,-14.934C-0.897,-14.472 -1.021,-13.996 -1.021,-13.506C-1.021,-12.69 -0.706,-12.05 -0.082,-11.587C0.544,-11.125 1.81,-10.895 3.715,-10.895L10.244,-10.895C13.563,-10.895 16.475,-10.351 18.978,-9.263C21.48,-8.173 23.41,-6.678 24.771,-4.773C26.131,-2.868 26.813,-0.72 26.813,1.675C26.813,6.191 24.865,9.714 20.977,12.243C17.085,14.774 11.469,16.039 4.124,16.039C-1.156,16.039 -5.318,15.481 -8.365,14.365C-11.413,13.251 -13.548,11.686 -14.772,9.673C-15.997,7.66 -16.607,5.13 -16.607,2.083L-5.019,2.083C-5.019,3.389 -4.761,4.422 -4.244,5.185C-3.728,5.945 -2.787,6.517 -1.427,6.897C-0.066,7.278 1.892,7.47 4.448,7.47C7.986,7.47 10.433,7.048 11.793,6.205C13.153,5.36 13.836,4.151 13.836,2.572C13.836,1.268 13.316,0.232 12.284,-0.529C11.248,-1.291 9.699,-1.672 7.631,-1.672L1.347,-1.672C-3.114,-1.672 -6.448,-2.473 -8.652,-4.079C-10.855,-5.683 -11.958,-7.738 -11.958,-10.241C-11.958,-11.818 -11.495,-13.356 -10.569,-14.853C-9.644,-16.35 -8.394,-17.587 -6.813,-18.566C-9.537,-20.036 -11.508,-21.763 -12.732,-23.749C-13.957,-25.734 -14.567,-28.143 -14.567,-30.972C-14.567,-35.814 -12.826,-39.664 -9.345,-42.521C-5.862,-45.378 -1.263,-46.806 4.448,-46.806C8.802,-46.696 12.489,-47.132 15.508,-48.112C18.527,-49.091 21.641,-50.532 24.853,-52.438L27.875,-42.888Z"
              style="fill:rgb(69,75,81);fill-rule:nonzero;"/>
    </g>
    <g transform="matrix(4.16667,0,0,4.16667,1737.32,473.88)">
        <path d="M0,12.815L11.916,12.815L5.96,-12.161L0,12.815ZM17.14,34.688L14.202,22.527L-2.285,22.527L-5.141,34.688L-19.016,34.688L-1.958,-21.873L14.284,-21.873L31.342,34.688L17.14,34.688Z"
              style="fill:rgb(69,75,81);fill-rule:nonzero;"/>
    </g>
    <g transform="matrix(4.16667,0,0,4.16667,1902.44,373.734)">
        <path d="M0,56.885C-2.097,54.737 -3.146,51.677 -3.146,47.703L-3.146,-1.838L9.75,-3.225L9.75,47.214C9.75,49.01 10.487,49.907 11.954,49.907C12.716,49.907 13.424,49.772 14.076,49.499L16.607,58.641C14.268,59.619 11.655,60.11 8.771,60.11C5.019,60.11 2.094,59.034 0,56.885"
              style="fill:rgb(69,75,81);fill-rule:nonzero;"/>
    </g>
    <g transform="matrix(4.16667,0,0,4.16667,2095.07,512.984)">
        <path d="M0,25.384C-1.741,30.988 -4.584,35.3 -8.528,38.321C-12.474,41.34 -17.766,43.04 -24.402,43.421L-25.791,34.362C-21.653,33.817 -18.594,32.893 -16.607,31.586C-14.624,30.281 -13.03,28.187 -11.834,25.303L-16.242,25.303L-29.462,-18.037L-15.751,-18.037L-7.996,17.059L0.491,-18.037L13.796,-18.037L0,25.384Z"
              style="fill:rgb(69,75,81);fill-rule:nonzero;"/>
    </g>
    <g transform="matrix(4.16667,0,0,4.16667,2291.63,406.884)">
        <path d="M0,48.727C-1.577,49.816 -3.412,50.658 -5.509,51.256C-7.603,51.854 -9.684,52.154 -11.752,52.154C-21.219,52.1 -25.954,46.876 -25.954,36.485L-25.954,16.406L-32.074,16.406L-32.074,7.427L-25.954,7.427L-25.954,-1.958L-13.059,-3.427L-13.059,7.427L-3.101,7.427L-4.486,16.406L-13.059,16.406L-13.059,36.321C-13.059,38.334 -12.731,39.776 -12.076,40.646C-11.425,41.517 -10.392,41.952 -8.976,41.952C-7.508,41.952 -5.956,41.49 -4.325,40.565L0,48.727Z"
              style="fill:rgb(69,75,81);fill-rule:nonzero;"/>
    </g>
    <g transform="matrix(4.16667,0,0,4.16667,-293.391,-808.531)">
        <path d="M639.261,342.467L626.365,342.467L626.365,299.127L639.261,299.127L639.261,342.467ZM638.241,278.356C639.68,279.742 640.403,281.498 640.403,283.62C640.403,285.742 639.68,287.497 638.241,288.884C636.796,290.272 634.96,290.966 632.731,290.966C630.499,290.966 628.677,290.272 627.263,288.884C625.846,287.497 625.141,285.742 625.141,283.62C625.141,281.498 625.846,279.742 627.263,278.356C628.677,276.969 630.499,276.275 632.731,276.275C634.96,276.275 636.796,276.969 638.241,278.356"
              style="fill:rgb(69,75,81);fill-rule:nonzero;"/>
    </g>
    <g transform="matrix(4.16667,0,0,4.16667,2531.05,618.749)">
        <path d="M0,-43.501C2.393,-42.63 4.65,-41.298 6.772,-39.502L1.225,-31.83C-1.498,-33.897 -4.244,-34.931 -7.021,-34.931C-9.904,-34.931 -12.08,-33.87 -13.55,-31.748C-15.018,-29.626 -15.754,-26.2 -15.754,-21.464C-15.754,-16.894 -15.018,-13.657 -13.55,-11.751C-12.08,-9.847 -9.958,-8.896 -7.185,-8.896C-5.714,-8.896 -4.383,-9.126 -3.183,-9.588C-1.986,-10.051 -0.545,-10.799 1.143,-11.834L6.772,-3.835C2.475,-0.407 -2.396,1.306 -7.836,1.306C-12.243,1.306 -16.053,0.368 -19.261,-1.508C-22.473,-3.386 -24.95,-6.025 -26.691,-9.426C-28.433,-12.826 -29.301,-16.813 -29.301,-21.382C-29.301,-25.954 -28.433,-30.007 -26.691,-33.544C-24.95,-37.08 -22.473,-39.841 -19.261,-41.829C-16.053,-43.814 -12.325,-44.807 -8.082,-44.807C-5.091,-44.807 -2.396,-44.371 0,-43.501"
              style="fill:rgb(69,75,81);fill-rule:nonzero;"/>
    </g>
    <g transform="matrix(4.16667,0,0,4.16667,2688.83,618.414)">
        <path d="M0,-43.34C2.72,-42.413 5.115,-41.108 7.184,-39.422L2.449,-32.157C-1.09,-34.388 -4.65,-35.504 -8.242,-35.504C-9.93,-35.504 -11.221,-35.219 -12.118,-34.648C-13.019,-34.076 -13.466,-33.272 -13.466,-32.239C-13.466,-31.423 -13.261,-30.757 -12.854,-30.24C-12.445,-29.722 -11.617,-29.192 -10.364,-28.649C-9.114,-28.104 -7.182,-27.45 -4.568,-26.689C-0.054,-25.384 3.306,-23.682 5.509,-21.588C7.713,-19.493 8.814,-16.595 8.814,-12.896C8.814,-9.958 7.971,-7.413 6.283,-5.265C4.6,-3.114 2.285,-1.469 -0.652,-0.326C-3.59,0.815 -6.854,1.387 -10.446,1.387C-14.092,1.387 -17.479,0.815 -20.609,-0.326C-23.738,-1.469 -26.39,-3.047 -28.564,-5.062L-22.281,-12.08C-18.635,-9.25 -14.801,-7.835 -10.773,-7.835C-8.815,-7.835 -7.276,-8.19 -6.161,-8.896C-5.047,-9.603 -4.49,-10.611 -4.49,-11.917C-4.49,-12.949 -4.707,-13.767 -5.142,-14.364C-5.576,-14.963 -6.42,-15.52 -7.673,-16.038C-8.923,-16.554 -10.909,-17.194 -13.629,-17.957C-17.93,-19.207 -21.138,-20.947 -23.26,-23.18C-25.382,-25.41 -26.443,-28.186 -26.443,-31.506C-26.443,-34.007 -25.722,-36.252 -24.28,-38.238C-22.838,-40.223 -20.77,-41.802 -18.078,-42.972C-15.383,-44.141 -12.27,-44.727 -8.733,-44.727C-5.63,-44.727 -2.721,-44.264 0,-43.34"
              style="fill:rgb(69,75,81);fill-rule:nonzero;"/>
    </g>
</svg>
